# xmcd
#
# Track frame offsets: 
#        150
#        15964
#        32974
#        50076
#        66976
#        84209
#        100697
#        116699
#        132346
#        151190
#        166693
#
# Disc length: 2426 seconds
#
# Revision: 0
# Processed by: cddbd v1.5.2PL0 Copyright (c) Steve Scherf et al.
# Submitted via: ExactAudioCopyFreeDBPlugin 1.0
#
DISCID=8009780b
DTITLE=David Kroll - It's Working
DYEAR=2008
DGENRE=Country
TTITLE0=Only Memories
TTITLE1=Watchin' The Corn Grow
TTITLE2=Easy
TTITLE3=Gotta Hear Your Voice
TTITLE4=It's Workin'
TTITLE5=Cigarettes
TTITLE6=When I was Cheatin' On You
TTITLE7=What Makes A Man A Man
TTITLE8=I'd Be Lost
TTITLE9=Anybody
TTITLE10=Long Way home
EXTD=
EXTT0=
EXTT1=
EXTT2=
EXTT3=
EXTT4=
EXTT5=
EXTT6=
EXTT7=
EXTT8=
EXTT9=
EXTT10=
PLAYORDER=
